<svg className="svg-img" version="1.1" id="Layer_1" xmlns="http://www.w3.org/2000/svg" xmlns:xlink="http://www.w3.org/1999/xlink" x="0px" y="0px" viewBox="0 0 52 59" style="enable-background:new 0 0 52 59;" xml:space="preserve">
    <path fill="none" stroke="currentColor" stroke-width="2.5" stroke-linecap="round" stroke-linejoin="round" d="M25.8,1.9l24.6,14.2L26,30.2L1.4,16.1L25.8,1.9z" />
    <path fill="none" stroke="currentColor" stroke-width="2.5" stroke-linecap="round" stroke-linejoin="round" d="M1.4,16.1L1.3,43.5l24.6,14.2L26,30.2L1.4,16.1z" />
    <path fill="none" stroke="currentColor" stroke-width="2.5" stroke-linecap="round" stroke-linejoin="round" d="M9.5,20.8c0.1,0.1,0,27.4,0,27.4" />
    <path fill="none" stroke="currentColor" stroke-width="2.5" stroke-linecap="round" stroke-linejoin="round" d="M17.7,25.5c0.1,0.1,0,27.4,0,27.4" />
    <path fill="none" stroke="currentColor" stroke-width="2.5" stroke-linecap="round" stroke-linejoin="round" d="M50.4,16.1l-0.1,27.4L25.9,57.6L26,30.2L50.4,16.1z" />
    <path fill="none" stroke="currentColor" stroke-width="2.5" stroke-linecap="round" stroke-linejoin="round" d="M42.2,20.8c-0.1,0.1,0,27.4,0,27.4" />
    <path fill="none" stroke="currentColor" stroke-width="2.5" stroke-linecap="round" stroke-linejoin="round" d="M34.1,25.5c-0.1,0.1,0,27.4,0,27.4" />
</svg>